<svg role="img" width="385" height="217" aria-labelledby="e-0 e-1" viewBox="-20 -20 385 217" xmlns="http://www.w3.org/2000/svg" xmlns:xlink="http://www.w3.org/1999/xlink"><title id="e-0">Web Service</title><desc id="e-1">A frontend talking to a backend and a database.</desc><defs><filter id="e-2" x="-6%" y="-8%" width="112%" height="120%"><feDropShadow dx="1.5" dy="2" flood-opacity="0.4" stdDeviation="2.5"/></filter></defs><rect class="backdrop" x="-20" y="-20" width="385" height="217" fill="#161b22" stroke="#373e47" rx="14"/><g class="graph" transform="scale(1 1) rotate(0) translate(4 103)"><polygon points="-4,4 -4,-103 340.65,-103 340.65,4 -4,4" fill="#161b22" stroke="none"/><g class="cluster container"><polygon points="128.02,-8 128.02,-91 328.65,-91 328.65,-8 128.02,-8" fill="none" stroke="#373e47" stroke-dasharray="6 4"/><text x="228.33" y="-74.4" fill="#8b949e" font-family="DiagramSans, Segoe UI, Roboto, Helvetica, Arial, sans-serif" font-size="14.00" text-anchor="middle" xml:space="preserve">Service</text></g><g class="edge"><path d="M201.46,-37C216.85,-37 235.46,-37 251.72,-37" fill="none" stroke="#2563eb"/><polygon points="251.55,-40.5 261.55,-37 251.55,-33.5 251.55,-40.5" fill="#2563eb" stroke="#2563eb"/><text x="232.26" y="-41.2" fill="#8b949e" font-family="DiagramSans, Segoe UI, Roboto, Helvetica, Arial, sans-serif" font-size="14.00" text-anchor="middle" xml:space="preserve">SQL</text></g><g class="edge"><path d="M65.27,-37C82.83,-37 104.91,-37 124.05,-37" fill="none" stroke="#2563eb"/><polygon points="124.01,-40.5 134.01,-37 124.01,-33.5 124.01,-40.5" fill="#2563eb" stroke="#2563eb"/><text x="100.52" y="-41.2" fill="#8b949e" font-family="DiagramSans, Segoe UI, Roboto, Helvetica, Arial, sans-serif" font-size="14.00" text-anchor="middle" xml:space="preserve">HTTP</text></g><g class="node role-backend"><path d="M189.03,-55C189.03,-55 148.02,-55 148.02,-55 142.02,-55 136.02,-49 136.02,-43 136.02,-43 136.02,-31 136.02,-31 136.02,-25 142.02,-19 148.02,-19 148.02,-19 189.03,-19 189.03,-19 195.03,-19 201.03,-25 201.03,-31 201.03,-31 201.03,-43 201.03,-43 201.03,-49 195.03,-55 189.03,-55" fill="#0f2e1c" stroke="#22c55e" filter="url(#e-2)"/><text x="168.52" y="-32.2" fill="#4ade80" font-family="DiagramSans, Segoe UI, Roboto, Helvetica, Arial, sans-serif" font-size="16.00" text-anchor="middle" xml:space="preserve">API</text></g><g class="node role-database"><path d="M320.65,-54.28C320.65,-56.4 307.84,-58.12 292.06,-58.12 276.29,-58.12 263.48,-56.4 263.48,-54.28 263.48,-54.28 263.48,-19.72 263.48,-19.72 263.48,-17.6 276.29,-15.88 292.06,-15.88 307.84,-15.88 320.65,-17.6 320.65,-19.72 320.65,-19.72 320.65,-54.28 320.65,-54.28" fill="#241a3d" stroke="#a855f7" filter="url(#e-2)"/><path d="M320.65,-54.28C320.65,-52.16 307.84,-50.44 292.06,-50.44 276.29,-50.44 263.48,-52.16 263.48,-54.28" fill="#241a3d" stroke="#a855f7" filter="url(#e-2)"/><text x="292.06" y="-32.2" fill="#d8b4fe" font-family="DiagramSans, Segoe UI, Roboto, Helvetica, Arial, sans-serif" font-size="16.00" text-anchor="middle" xml:space="preserve">DB</text></g><g class="node role-frontend"><path d="M53.02,-55C53.02,-55 12,-55 12,-55 6,-55 0,-49 0,-43 0,-43 0,-31 0,-31 0,-25 6,-19 12,-19 12,-19 53.02,-19 53.02,-19 59.02,-19 65.02,-25 65.02,-31 65.02,-31 65.02,-43 65.02,-43 65.02,-49 59.02,-55 53.02,-55" fill="#0b2b33" stroke="#22d3ee" filter="url(#e-2)"/><text x="32.51" y="-32.2" fill="#67e8f9" font-family="DiagramSans, Segoe UI, Roboto, Helvetica, Arial, sans-serif" font-size="16.00" text-anchor="middle" xml:space="preserve">Web</text></g></g><g class="legend"><rect x="-8" y="163" width="14" height="14" fill="#0b2b33" stroke="#22d3ee"/><text x="14" y="175" fill="#8b949e" font-family="DiagramSans, Segoe UI, Roboto, Helvetica, Arial, sans-serif" font-size="14">Frontend</text><rect x="102.62" y="163" width="14" height="14" fill="#0f2e1c" stroke="#22c55e"/><text x="124.62" y="175" fill="#8b949e" font-family="DiagramSans, Segoe UI, Roboto, Helvetica, Arial, sans-serif" font-size="14">Backend</text><rect x="205.15" y="163" width="14" height="14" fill="#241a3d" stroke="#a855f7"/><text x="227.15" y="175" fill="#8b949e" font-family="DiagramSans, Segoe UI, Roboto, Helvetica, Arial, sans-serif" font-size="14">Database</text></g></svg>