<svg role="img" width="353" height="160" aria-labelledby="e-0 e-1" viewBox="-20 -20 353 160" xmlns="http://www.w3.org/2000/svg" xmlns:xlink="http://www.w3.org/1999/xlink"><title id="e-0">Ingest Pipeline</title><desc id="e-1">A processor writes records into a data store.</desc><defs><filter id="e-2" x="-6%" y="-8%" width="112%" height="120%"><feDropShadow dx="1.5" dy="2" flood-opacity="0.4" stdDeviation="2.5"/></filter></defs><rect class="backdrop" x="-20" y="-20" width="353" height="160" fill="#161b22" stroke="#373e47" rx="14"/><g class="graph" transform="scale(1 1) rotate(0) translate(4 46.24)"><polygon points="-4,4 -4,-46.24 308.53,-46.24 308.53,4 -4,4" fill="#161b22" stroke="none"/><g class="edge"><path d="M128.27,-21.12C145.34,-21.12 163.86,-21.12 181.09,-21.12" fill="none" stroke="#8b949e"/><polygon points="180.69,-24.62 190.69,-21.12 180.69,-17.62 180.69,-24.62" fill="#8b949e" stroke="#8b949e"/><text x="160.18" y="-25.32" fill="#8b949e" font-family="DiagramSans, Segoe UI, Roboto, Helvetica, Arial, sans-serif" font-size="14.00" text-anchor="middle" xml:space="preserve">write</text></g><g class="node role-compute"><path d="M115.8,-39.12C115.8,-39.12 12,-39.12 12,-39.12 6,-39.12 0,-33.12 0,-27.12 0,-27.12 0,-15.12 0,-15.12 0,-9.12 6,-3.12 12,-3.12 12,-3.12 115.8,-3.12 115.8,-3.12 121.8,-3.12 127.8,-9.12 127.8,-15.12 127.8,-15.12 127.8,-27.12 127.8,-27.12 127.8,-33.12 121.8,-39.12 115.8,-39.12" fill="#16243d" stroke="#3b82f6" filter="url(#e-2)"/><text x="63.9" y="-16.32" fill="#93c5fd" font-family="DiagramSans, Segoe UI, Roboto, Helvetica, Arial, sans-serif" font-size="16.00" text-anchor="middle" xml:space="preserve">Processor</text></g><g class="node role-storage"><path d="M304.53,-38.4C304.53,-40.52 279.43,-42.24 248.55,-42.24 217.66,-42.24 192.57,-40.52 192.57,-38.4 192.57,-38.4 192.57,-3.84 192.57,-3.84 192.57,-1.72 217.66,0 248.55,0 279.43,0 304.53,-1.72 304.53,-3.84 304.53,-3.84 304.53,-38.4 304.53,-38.4" fill="#0c2e2a" stroke="#14b8a6" filter="url(#e-2)"/><path d="M304.53,-38.4C304.53,-36.28 279.43,-34.56 248.55,-34.56 217.66,-34.56 192.57,-36.28 192.57,-38.4" fill="#0c2e2a" stroke="#14b8a6" filter="url(#e-2)"/><text x="248.55" y="-16.32" fill="#5eead4" font-family="DiagramSans, Segoe UI, Roboto, Helvetica, Arial, sans-serif" font-size="16.00" text-anchor="middle" xml:space="preserve">Records</text></g></g><g class="legend"><rect x="-8" y="106" width="14" height="14" fill="#0c2e2a" stroke="#14b8a6"/><text x="14" y="118" fill="#8b949e" font-family="DiagramSans, Segoe UI, Roboto, Helvetica, Arial, sans-serif" font-size="14">Storage</text><rect x="94.54" y="106" width="14" height="14" fill="#16243d" stroke="#3b82f6"/><text x="116.54" y="118" fill="#8b949e" font-family="DiagramSans, Segoe UI, Roboto, Helvetica, Arial, sans-serif" font-size="14">Compute</text></g></svg>