<svg role="img" width="299" height="84" aria-labelledby="e-0 e-1" viewBox="-20 -20 299 84" xmlns="http://www.w3.org/2000/svg" xmlns:xlink="http://www.w3.org/1999/xlink"><title id="e-0">Customer Orders</title><desc id="e-1">A customer places many orders.</desc><defs><filter id="e-2" x="-6%" y="-8%" width="112%" height="120%"><feDropShadow dx="1.5" dy="2" flood-opacity="0.4" stdDeviation="2.5"/></filter></defs><rect class="backdrop" x="-20" y="-20" width="299" height="84" fill="#ffffff" stroke="#d0d7de" rx="14"/><g class="graph" transform="scale(1 1) rotate(0) translate(4 40)"><polygon points="-4,4 -4,-40 254.61,-40 254.61,4 -4,4" fill="#ffffff" stroke="none"/><g class="edge"><path d="M112.11,-18C130.76,-18 151.21,-18 168.47,-18" fill="none" stroke="#6e7781"/><text x="140.24" y="-22.2" fill="#57606a" font-family="DiagramSans, Segoe UI, Roboto, Helvetica, Arial, sans-serif" font-size="14.00" text-anchor="middle" xml:space="preserve">1..*</text></g><g class="node role-default"><polygon points="111.74,-36 0,-36 0,0 111.74,0 111.74,-36" fill="#f1f5f9" stroke="#cbd5e1" filter="url(#e-2)"/><text x="55.87" y="-13.2" fill="#334155" font-family="DiagramSans, Segoe UI, Roboto, Helvetica, Arial, sans-serif" font-size="16.00" text-anchor="middle" xml:space="preserve">Customer</text></g><g class="node role-default"><polygon points="250.61,-36 168.74,-36 168.74,0 250.61,0 250.61,-36" fill="#f1f5f9" stroke="#cbd5e1" filter="url(#e-2)"/><text x="209.68" y="-13.2" fill="#334155" font-family="DiagramSans, Segoe UI, Roboto, Helvetica, Arial, sans-serif" font-size="16.00" text-anchor="middle" xml:space="preserve">Order</text></g></g></svg>