<svg role="img" width="264" height="271" aria-labelledby="e-0 e-1" viewBox="-20 -20 264 271" xmlns="http://www.w3.org/2000/svg" xmlns:xlink="http://www.w3.org/1999/xlink"><title id="e-0">Order Check</title><desc id="e-1">An order is checked for stock then shipped or backordered.</desc><defs><filter id="e-2" x="-6%" y="-8%" width="112%" height="120%"><feDropShadow dx="1.5" dy="2" flood-opacity="0.4" stdDeviation="2.5"/></filter></defs><rect class="backdrop" x="-20" y="-20" width="264" height="271" fill="#161b22" stroke="#373e47" rx="14"/><g class="graph" transform="scale(1 1) rotate(0) translate(4 227.24)"><polygon points="-4,4 -4,-227.24 220.26,-227.24 220.26,4 -4,4" fill="#161b22" stroke="none"/><g class="edge"><path d="M97.38,-186.89C97.38,-179.63 97.38,-170.85 97.38,-162.09" fill="none" stroke="#8b949e"/><polygon points="100.88,-162.23 97.38,-152.23 93.88,-162.23 100.88,-162.23" fill="#8b949e" stroke="#8b949e"/></g><g class="edge"><path d="M82.85,-93.15C74.67,-78.88 64.46,-61.05 56.1,-46.45" fill="none" stroke="#8b949e"/><polygon points="59.15,-44.74 51.15,-37.8 53.08,-48.22 59.15,-44.74" fill="#8b949e" stroke="#8b949e"/><text x="78.21" y="-58.2" fill="#8b949e" font-family="DiagramSans, Segoe UI, Roboto, Helvetica, Arial, sans-serif" font-size="14.00" text-anchor="middle" xml:space="preserve">yes</text></g><g class="edge"><path d="M112.17,-93.15C120.56,-78.74 131.08,-60.7 139.63,-46.02" fill="none" stroke="#8b949e"/><polygon points="142.42,-48.2 144.43,-37.79 136.37,-44.67 142.42,-48.2" fill="#8b949e" stroke="#8b949e"/><text x="141.96" y="-58.2" fill="#8b949e" font-family="DiagramSans, Segoe UI, Roboto, Helvetica, Arial, sans-serif" font-size="14.00" text-anchor="middle" xml:space="preserve">no</text></g><g class="node role-default"><polygon points="178.16,-223.24 16.6,-223.24 16.6,-187.24 178.16,-187.24 178.16,-223.24" fill="#1c2128" stroke="#484f58" filter="url(#e-2)"/><text x="97.38" y="-200.44" fill="#adbac7" font-family="DiagramSans, Segoe UI, Roboto, Helvetica, Arial, sans-serif" font-size="16.00" text-anchor="middle" xml:space="preserve">Receive Order</text></g><g class="node role-default"><polygon points="97.38,-150.24 0,-119.52 97.38,-88.8 194.76,-119.52 97.38,-150.24" fill="#1c2128" stroke="#484f58" filter="url(#e-2)"/><text x="97.38" y="-114.72" fill="#adbac7" font-family="DiagramSans, Segoe UI, Roboto, Helvetica, Arial, sans-serif" font-size="16.00" text-anchor="middle" xml:space="preserve">In Stock?</text></g><g class="node role-default"><polygon points="76.31,-36 4.45,-36 4.45,0 76.31,0 76.31,-36" fill="#1c2128" stroke="#484f58" filter="url(#e-2)"/><text x="40.38" y="-13.2" fill="#adbac7" font-family="DiagramSans, Segoe UI, Roboto, Helvetica, Arial, sans-serif" font-size="16.00" text-anchor="middle" xml:space="preserve">Ship</text></g><g class="node role-default"><polygon points="216.26,-36 94.5,-36 94.5,0 216.26,0 216.26,-36" fill="#1c2128" stroke="#484f58" filter="url(#e-2)"/><text x="155.38" y="-13.2" fill="#adbac7" font-family="DiagramSans, Segoe UI, Roboto, Helvetica, Arial, sans-serif" font-size="16.00" text-anchor="middle" xml:space="preserve">Backorder</text></g></g></svg>