<svg role="img" width="368" height="318" aria-labelledby="e-0 e-1" viewBox="-20 -20 368 318" xmlns="http://www.w3.org/2000/svg"><title id="e-0">Login</title><desc id="e-1">A user authenticates against the API.</desc><defs><filter id="e-2" x="-6%" y="-8%" width="112%" height="120%"><feDropShadow dx="1.5" dy="2" flood-opacity="0.4" stdDeviation="2.5"/></filter></defs><rect class="backdrop" x="-20" y="-20" width="368" height="318" fill="#ffffff" stroke="#d0d7de" rx="14"/><line class="lifeline" stroke="#d0d7de" stroke-dasharray="4 4" x1="84" x2="84" y1="60" y2="184"/><line class="lifeline" stroke="#d0d7de" stroke-dasharray="4 4" x1="244" x2="244" y1="60" y2="184"/><rect class="activation" x="238" y="88" width="12" height="48" fill="#f6f8fa" stroke="#6e7781"/><line class="message message-sync" stroke="#6e7781" x1="84" x2="236" y1="88" y2="88"/><polygon class="arrowhead arrowhead-closed" points="244,88 236,84 236,92" fill="#6e7781" stroke="#6e7781"/><text class="message-label" x="164" y="82" fill="#57606a" stroke="#6e7781" font-family="DiagramSans, Segoe UI, Roboto, Helvetica, Arial, sans-serif" font-size="14" text-anchor="middle">POST /login</text><line class="message message-reply" stroke="#6e7781" stroke-dasharray="6 4" x1="244" x2="92" y1="136" y2="136"/><polyline class="arrowhead arrowhead-open" points="92,132 84,136 92,140" fill="none" stroke="#6e7781"/><text class="message-label" x="164" y="130" fill="#57606a" stroke="#6e7781" font-family="DiagramSans, Segoe UI, Roboto, Helvetica, Arial, sans-serif" font-size="14" text-anchor="middle">200 OK</text><g class="role-external"><rect class="participant-header" x="24" y="24" width="120" height="36" fill="#eef1f5" stroke="#94a3b8" filter="url(#e-2)"/><text x="84" y="42" fill="#475569" font-family="DiagramSans, Segoe UI, Roboto, Helvetica, Arial, sans-serif" font-size="14" text-anchor="middle" dominant-baseline="central">User</text></g><g class="role-backend"><rect class="participant-header" x="184" y="24" width="120" height="36" fill="#dcfce7" stroke="#16a34a" filter="url(#e-2)"/><text x="244" y="42" fill="#166534" font-family="DiagramSans, Segoe UI, Roboto, Helvetica, Arial, sans-serif" font-size="14" text-anchor="middle" dominant-baseline="central">API</text></g><g class="legend"><rect x="-8" y="264" width="14" height="14" fill="#dcfce7" stroke="#16a34a"/><text x="14" y="276" fill="#57606a" font-family="DiagramSans, Segoe UI, Roboto, Helvetica, Arial, sans-serif" font-size="14">Backend</text><rect x="94.54" y="264" width="14" height="14" fill="#eef1f5" stroke="#94a3b8"/><text x="116.54" y="276" fill="#57606a" font-family="DiagramSans, Segoe UI, Roboto, Helvetica, Arial, sans-serif" font-size="14">External</text></g></svg>