<svg role="img" width="290" height="276" aria-labelledby="e-0 e-1" viewBox="-20 -20 290 276" xmlns="http://www.w3.org/2000/svg" xmlns:xlink="http://www.w3.org/1999/xlink"><title id="e-0">Job Lifecycle</title><desc id="e-1">A job runs to completion from an initial state.</desc><defs><filter id="e-2" x="-6%" y="-8%" width="112%" height="120%"><feDropShadow dx="1.5" dy="2" flood-opacity="0.4" stdDeviation="2.5"/></filter></defs><rect class="backdrop" x="-20" y="-20" width="290" height="276" fill="#161b22" stroke="#373e47" rx="14"/><g class="graph" transform="scale(1 1) rotate(0) translate(4 232.49)"><polygon points="-4,4 -4,-232.49 118.55,-232.49 118.55,4 -4,4" fill="#161b22" stroke="none"/><g class="edge"><path d="M57.28,-184.77C57.28,-172.62 57.28,-157.14 57.28,-143.88" fill="none" stroke="#8b949e"/><polygon points="60.78,-144 57.28,-134 53.78,-144 60.78,-144" fill="#8b949e" stroke="#8b949e"/><text x="72.83" y="-154.44" fill="#8b949e" font-family="DiagramSans, Segoe UI, Roboto, Helvetica, Arial, sans-serif" font-size="14.00" text-anchor="middle" xml:space="preserve">begin</text></g><g class="edge"><path d="M57.28,-95.79C57.28,-84.27 57.28,-68.82 57.28,-55.09" fill="none" stroke="#8b949e"/><polygon points="60.78,-55.13 57.28,-45.13 53.78,-55.13 60.78,-55.13" fill="#8b949e" stroke="#8b949e"/><text x="73.22" y="-65.64" fill="#8b949e" font-family="DiagramSans, Segoe UI, Roboto, Helvetica, Arial, sans-serif" font-size="14.00" text-anchor="middle" xml:space="preserve">finish</text></g><g class="node role-default"><ellipse cx="57.28" cy="-206.77" fill="#1c2128" stroke="#484f58" filter="url(#e-2)" rx="57.28" ry="21.72"/><text x="57.28" y="-201.97" fill="#adbac7" font-family="DiagramSans, Segoe UI, Roboto, Helvetica, Arial, sans-serif" font-size="16.00" text-anchor="middle" xml:space="preserve">Start</text></g><g class="node role-compute"><path d="M98.7,-132.24C98.7,-132.24 15.85,-132.24 15.85,-132.24 9.85,-132.24 3.85,-126.24 3.85,-120.24 3.85,-120.24 3.85,-108.24 3.85,-108.24 3.85,-102.24 9.85,-96.24 15.85,-96.24 15.85,-96.24 98.7,-96.24 98.7,-96.24 104.7,-96.24 110.7,-102.24 110.7,-108.24 110.7,-108.24 110.7,-120.24 110.7,-120.24 110.7,-126.24 104.7,-132.24 98.7,-132.24" fill="#16243d" stroke="#3b82f6" filter="url(#e-2)"/><text x="57.28" y="-109.44" fill="#93c5fd" font-family="DiagramSans, Segoe UI, Roboto, Helvetica, Arial, sans-serif" font-size="16.00" text-anchor="middle" xml:space="preserve">Running</text></g><g class="node role-default"><ellipse cx="57.28" cy="-21.72" fill="#1c2128" stroke="#484f58" filter="url(#e-2)" rx="50.33" ry="21.72"/><text x="57.28" y="-16.92" fill="#adbac7" font-family="DiagramSans, Segoe UI, Roboto, Helvetica, Arial, sans-serif" font-size="16.00" text-anchor="middle" xml:space="preserve">Done</text></g></g><g class="legend"><rect x="179" y="-8" width="14" height="14" fill="#16243d" stroke="#3b82f6"/><text x="201" y="4" fill="#8b949e" font-family="DiagramSans, Segoe UI, Roboto, Helvetica, Arial, sans-serif" font-size="14">Compute</text></g></svg>