<svg role="img" width="1152" height="279" aria-labelledby="e-0 e-1" viewBox="-20 -20 1152 279" xmlns="http://www.w3.org/2000/svg" xmlns:xlink="http://www.w3.org/1999/xlink"><title id="e-0">agent-docs build pipeline</title><desc id="e-1">Canonical Claude-native skills are emitted by one build into per-target adapter bundles and a Claude plugin.</desc><defs><filter id="e-2" x="-6%" y="-8%" width="112%" height="120%"><feDropShadow dx="1.5" dy="2" flood-opacity="0.4" stdDeviation="2.5"/></filter></defs><rect class="backdrop" x="-20" y="-20" width="1152" height="279" fill="#161b22" stroke="#373e47" rx="14"/><g class="graph" transform="scale(1 1) rotate(0) translate(4 165)"><polygon points="-4,4 -4,-165 1108.28,-165 1108.28,4 -4,4" fill="#161b22" stroke="none"/><g class="cluster container"><polygon points="8,-8 8,-153 256.49,-153 256.49,-8 8,-8" fill="none" stroke="#373e47" stroke-dasharray="6 4"/><text x="132.24" y="-136.4" fill="#8b949e" font-family="DiagramSans, Segoe UI, Roboto, Helvetica, Arial, sans-serif" font-size="14.00" text-anchor="middle" xml:space="preserve">Authored once (Claude-native)</text></g><g class="edge"><path d="M248.61,-84.82C287.06,-81.42 329.45,-77.68 366.23,-74.43" fill="none" stroke="#8b949e"/><polygon points="366.29,-77.94 375.94,-73.58 365.67,-70.97 366.29,-77.94" fill="#8b949e" stroke="#8b949e"/><text x="313.2" y="-87.3" fill="#8b949e" font-family="DiagramSans, Segoe UI, Roboto, Helvetica, Arial, sans-serif" font-size="14.00" text-anchor="middle" xml:space="preserve">discover</text></g><g class="edge"><path d="M248.9,-43.71C284.53,-46.86 323.85,-50.51 359.91,-54.2 361.98,-54.41 364.07,-54.63 366.18,-54.85" fill="none" stroke="#8b949e"/><polygon points="365.76,-58.33 376.08,-55.91 366.51,-51.37 365.76,-58.33" fill="#8b949e" stroke="#8b949e"/><text x="313.2" y="-58.4" fill="#8b949e" font-family="DiagramSans, Segoe UI, Roboto, Helvetica, Arial, sans-serif" font-size="14.00" text-anchor="middle" xml:space="preserve">config + registry</text></g><g class="edge"><path d="M547.73,-73.09C569.43,-74.92 593.92,-76.98 619.45,-79.14" fill="none" stroke="#8b949e"/><polygon points="619.07,-82.62 629.33,-79.97 619.66,-75.64 619.07,-82.62" fill="#8b949e" stroke="#8b949e"/><text x="589.32" y="-82.17" fill="#8b949e" font-family="DiagramSans, Segoe UI, Roboto, Helvetica, Arial, sans-serif" font-size="14.00" text-anchor="middle" xml:space="preserve">emit</text></g><g class="edge"><path d="M547.94,-55.97C553.92,-55.34 559.86,-54.75 565.62,-54.2 617.27,-49.31 674,-44.88 724.16,-41.28" fill="none" stroke="#8b949e"/><polygon points="724.18,-44.79 733.91,-40.59 723.68,-37.81 724.18,-44.79" fill="#8b949e" stroke="#8b949e"/><text x="589.32" y="-58.4" fill="#8b949e" font-family="DiagramSans, Segoe UI, Roboto, Helvetica, Arial, sans-serif" font-size="14.00" text-anchor="middle" xml:space="preserve">generate</text></g><g class="node role-storage"><path d="M236.49,-119.96C236.49,-119.96 28,-119.96 28,-119.96 22,-119.96 16,-113.96 16,-107.96 16,-107.96 16,-82.04 16,-82.04 16,-76.04 22,-70.04 28,-70.04 28,-70.04 236.49,-70.04 236.49,-70.04 242.49,-70.04 248.49,-76.04 248.49,-82.04 248.49,-82.04 248.49,-107.96 248.49,-107.96 248.49,-113.96 242.49,-119.96 236.49,-119.96" fill="#0c2e2a" stroke="#14b8a6" filter="url(#e-2)"/><text x="132.24" y="-99.8" fill="#5eead4" font-family="DiagramSans, Segoe UI, Roboto, Helvetica, Arial, sans-serif" font-size="16.00" text-anchor="middle" xml:space="preserve">Canonical skills</text><text x="132.24" y="-80.6" fill="#5eead4" font-family="DiagramSans, Segoe UI, Roboto, Helvetica, Arial, sans-serif" font-size="16.00" text-anchor="middle" xml:space="preserve">(skills/*/SKILL.md)</text></g><g class="node role-compute"><path d="M535.62,-90.96C535.62,-90.96 389.91,-90.96 389.91,-90.96 383.91,-90.96 377.91,-84.96 377.91,-78.96 377.91,-78.96 377.91,-53.04 377.91,-53.04 377.91,-47.04 383.91,-41.04 389.91,-41.04 389.91,-41.04 535.62,-41.04 535.62,-41.04 541.62,-41.04 547.62,-47.04 547.62,-53.04 547.62,-53.04 547.62,-78.96 547.62,-78.96 547.62,-84.96 541.62,-90.96 535.62,-90.96" fill="#16243d" stroke="#3b82f6" filter="url(#e-2)"/><text x="462.77" y="-70.8" fill="#93c5fd" font-family="DiagramSans, Segoe UI, Roboto, Helvetica, Arial, sans-serif" font-size="16.00" text-anchor="middle" xml:space="preserve">bun run build</text><text x="462.77" y="-51.6" fill="#93c5fd" font-family="DiagramSans, Segoe UI, Roboto, Helvetica, Arial, sans-serif" font-size="16.00" text-anchor="middle" xml:space="preserve">(emitter)</text></g><g class="node role-default"><path d="M236.49,-52C236.49,-52 28,-52 28,-52 22,-52 16,-46 16,-40 16,-40 16,-28 16,-28 16,-22 22,-16 28,-16 28,-16 236.49,-16 236.49,-16 242.49,-16 248.49,-22 248.49,-28 248.49,-28 248.49,-40 248.49,-40 248.49,-46 242.49,-52 236.49,-52" fill="#1c2128" stroke="#484f58" filter="url(#e-2)"/><text x="132.24" y="-29.2" fill="#adbac7" font-family="DiagramSans, Segoe UI, Roboto, Helvetica, Arial, sans-serif" font-size="16.00" text-anchor="middle" xml:space="preserve">tools.manifest.json</text></g><g class="node role-backend"><path d="M1092.28,-124.96C1092.28,-124.96 643.03,-124.96 643.03,-124.96 637.03,-124.96 631.03,-118.96 631.03,-112.96 631.03,-112.96 631.03,-87.04 631.03,-87.04 631.03,-81.04 637.03,-75.04 643.03,-75.04 643.03,-75.04 1092.28,-75.04 1092.28,-75.04 1098.28,-75.04 1104.28,-81.04 1104.28,-87.04 1104.28,-87.04 1104.28,-112.96 1104.28,-112.96 1104.28,-118.96 1098.28,-124.96 1092.28,-124.96" fill="#0f2e1c" stroke="#22c55e" filter="url(#e-2)"/><text x="867.65" y="-104.8" fill="#4ade80" font-family="DiagramSans, Segoe UI, Roboto, Helvetica, Arial, sans-serif" font-size="16.00" text-anchor="middle" xml:space="preserve">adapters/&lt;target&gt;</text><text x="867.65" y="-85.6" fill="#4ade80" font-family="DiagramSans, Segoe UI, Roboto, Helvetica, Arial, sans-serif" font-size="16.00" text-anchor="middle" xml:space="preserve">claude · codex · copilot · cursor · gemini</text></g><g class="node role-gateway"><path d="M987.59,-56.96C987.59,-56.96 747.71,-56.96 747.71,-56.96 741.71,-56.96 735.71,-50.96 735.71,-44.96 735.71,-44.96 735.71,-19.04 735.71,-19.04 735.71,-13.04 741.71,-7.04 747.71,-7.04 747.71,-7.04 987.59,-7.04 987.59,-7.04 993.59,-7.04 999.59,-13.04 999.59,-19.04 999.59,-19.04 999.59,-44.96 999.59,-44.96 999.59,-50.96 993.59,-56.96 987.59,-56.96" fill="#3a2c0a" stroke="#f59e0b" filter="url(#e-2)"/><text x="867.65" y="-36.8" fill="#fbbf24" font-family="DiagramSans, Segoe UI, Roboto, Helvetica, Arial, sans-serif" font-size="16.00" text-anchor="middle" xml:space="preserve">.claude-plugin</text><text x="867.65" y="-17.6" fill="#fbbf24" font-family="DiagramSans, Segoe UI, Roboto, Helvetica, Arial, sans-serif" font-size="16.00" text-anchor="middle" xml:space="preserve">(plugin + marketplace)</text></g></g><g class="legend"><rect x="-8" y="225" width="14" height="14" fill="#0f2e1c" stroke="#22c55e"/><text x="14" y="237" fill="#8b949e" font-family="DiagramSans, Segoe UI, Roboto, Helvetica, Arial, sans-serif" font-size="14">Backend</text><rect x="94.54" y="225" width="14" height="14" fill="#3a2c0a" stroke="#f59e0b"/><text x="116.54" y="237" fill="#8b949e" font-family="DiagramSans, Segoe UI, Roboto, Helvetica, Arial, sans-serif" font-size="14">Gateway</text><rect x="197.08" y="225" width="14" height="14" fill="#0c2e2a" stroke="#14b8a6"/><text x="219.08" y="237" fill="#8b949e" font-family="DiagramSans, Segoe UI, Roboto, Helvetica, Arial, sans-serif" font-size="14">Storage</text><rect x="299.62" y="225" width="14" height="14" fill="#16243d" stroke="#3b82f6"/><text x="321.62" y="237" fill="#8b949e" font-family="DiagramSans, Segoe UI, Roboto, Helvetica, Arial, sans-serif" font-size="14">Compute</text></g></svg>